<?xml version="1.0" encoding="utf-8"?>
<!-- Generator: Adobe Illustrator 22.1.0, SVG Export Plug-In . SVG Version: 6.00 Build 0)  -->
<svg version="1.1" id="Слой_1" xmlns="http://www.w3.org/2000/svg" xmlns:xlink="http://www.w3.org/1999/xlink" x="0px" y="0px"
	 viewBox="0 0 500 500" style="enable-background:new 0 0 500 500;" xml:space="preserve">
<style type="text/css">
	.st0{fill:#4A76A8;}
	.st1{fill:#FFFFFF;}
	.st2{font-family:'Calibri';}
	.st3{font-size:273.8644px;}
	.st4{font-size:295.8613px;}
	.st5{font-size:232.001px;}
	.st6{fill:#F7F7F7;}
</style>
<g>
	<path class="st0" d="M172.4,472H38.6c-4.6,0-8.4-3.8-8.4-8.4V249c0-5.1,4.1-9.2,9.2-9.2h133V472z"/>
</g>
<g>
	<path class="st0" d="M312.9,472H170.8V141.6c0-6,4.9-10.7,10.7-10.7h131.4L312.9,472L312.9,472z"/>
</g>
<g>
	<path class="st0" d="M445.1,472H309.8V65.6c0-4.9,3.9-9,9-9H442c5.5,0,10,4.4,10,10v398.5C451.9,469,448.9,472,445.1,472z"/>
</g>
<text transform="matrix(1 0 0 1 -707.6665 -61.6665)" class="st1" style="font-family:'ArialMT'; font-size:72px;">S</text>
<text transform="matrix(1.2088 0 0 1 38.1082 404.834)" class="st1 st2 st3">s</text>
<text transform="matrix(1 0 0 1 166.0437 353.208)" class="st1 st2 st4">4</text>
<text transform="matrix(1 0 0 1 305.033 249.2129)" class="st1 st2 st5">G</text>
<path class="st6" d="M133.7,458.6l-3.9-3.9c-3.5-3.5-3.5-9.2,0-12.8l89.9-89.9c3.5-3.5,9.2-3.5,12.8,0l3.9,3.9
	c3.5,3.5,3.5,9.2,0,12.8l-89.9,89.9C142.8,462.2,137.1,462.2,133.7,458.6z"/>
<path class="st6" d="M213.9,358l8.1-8.5c2.2-2.4,6.2-2.5,8.5-0.2l77.2,73.3c2.4,2.2,2.5,6.2,0.2,8.5l-8.1,8.5
	c-2.2,2.4-6.2,2.5-8.5,0.2l-77.2-73.3C211.7,364.1,211.5,360.3,213.9,358z"/>
<path class="st6" d="M292.1,439.8l-8.2-7.9c-2.5-2.4-2.5-6.2-0.2-8.7l137.7-145c2.4-2.5,6.2-2.5,8.7-0.2l8.2,7.9
	c2.5,2.4,2.5,6.2,0.2,8.7l-137.7,145C298.4,442,294.6,442.2,292.1,439.8z"/>
</svg>
